<?xml version="1.0" encoding="utf-8"?>
<!-- Generator: Adobe Illustrator 22.1.0, SVG Export Plug-In . SVG Version: 6.00 Build 0)  -->
<svg version="1.1" id="Слой_1" xmlns="http://www.w3.org/2000/svg" xmlns:xlink="http://www.w3.org/1999/xlink" x="0px" y="0px"
	 viewBox="0 0 90 45" style="enable-background:new 0 0 90 45;" xml:space="preserve">
<style type="text/css">
	.st0{fill:#FFFFFF;}
</style>
<g id="Слой_x0020_1">
	<path class="st0" d="M21,24.7h-9.7c-0.3,0-9.2-0.2-9.4,0c-0.2,0.2-0.2,6.9-0.2,7.2v10.6c0,0.3,0.1,0.6,0.3,0.8s0.5,0.3,0.8,0.3H19
		c0.9,0,1.8-0.3,2.4-1c0.7-0.7,1-1.5,1-2.4v-0.6c0-0.9-0.3-1.7-1-2.4c0.6-0.7,1-1.5,1-2.4v-0.5c0-1-0.3-1.8-1-2.4
		C20.7,31.2,21.9,24.7,21,24.7z M3.9,25.4h14.8v5.8H3.9V25.4z M20.2,40.1c0,0.3-0.1,0.6-0.4,0.9c-0.2,0.2-0.5,0.4-0.9,0.4h-15v-3.1
		H19c0.3,0,0.6,0.1,0.9,0.4c0.2,0.2,0.4,0.5,0.4,0.9L20.2,40.1L20.2,40.1z M20.2,34.8c0,0.3-0.1,0.6-0.4,0.9
		C19.6,35.9,19.3,36,19,36H3.9v-3H19c0.3,0,0.6,0.1,0.9,0.4c0.2,0.2,0.4,0.5,0.4,0.9L20.2,34.8L20.2,34.8z"/>
	<path class="st0" d="M5.1,9h12.8c0.1,0,0.3,0,0.4,0.1c0.2,0,0.4,0.1,0.5,0.2c0.4,0.3,0.6,0.7,0.6,1.3c0,0.1,0,0.3,0,0.4
		c0,0.2-0.1,0.4-0.2,0.5c-0.3,0.4-0.7,0.6-1.3,0.6H1.7v2.2h16.2c1.3,0,2.2-0.4,2.9-1.3c0.6-0.7,0.8-1.5,0.8-2.4
		c0-1.2-0.4-2.2-1.3-2.9c-0.7-0.6-1.5-0.9-2.4-0.9H5.1c-0.6,0-1-0.2-1.3-0.6C3.7,6.1,3.6,5.9,3.6,5.7c0-0.1-0.1-0.3-0.1-0.4
		c0-0.6,0.2-1,0.6-1.3c0.2-0.1,0.3-0.2,0.5-0.2c0.1,0,0.3,0,0.4-0.1h16.1V1.5h-16c-0.9,0-1.7,0.3-2.4,0.9C1.8,3.1,1.3,4.1,1.3,5.3
		c0,0.9,0.3,1.7,0.8,2.4C2.9,8.6,3.8,9,5.1,9z"/>
	<path class="st0" d="M63.8,38.1h0.7v2.1c0,0.3-0.1,0.6-0.4,0.9c-0.2,0.2-0.5,0.4-0.9,0.4H49.8c-0.3,0-0.6-0.1-0.9-0.4
		c-0.2-0.2-0.4-0.5-0.4-0.9v-5.9c0-0.3,0.1-0.6,0.4-0.9c0.2-0.2,0.5-0.4,0.9-0.4h17v-2.2h-17c-1,0-1.8,0.3-2.4,1
		c-0.7,0.7-1,1.5-1,2.4v5.9c0,1,0.3,1.8,1,2.4c0.7,0.7,1.5,1,2.4,1h13.5c1,0,1.8-0.3,2.4-1c0.7-0.7,1-1.5,1-2.4v-4.3h-2.9
		C63.8,35.8,63.8,38.1,63.8,38.1z"/>
	<path class="st0" d="M48.3,10.5h16v3.9h2.2V5c0-1-0.3-1.8-1-2.4c-0.7-0.7-1.5-1-2.4-1H49.5c-1,0-1.8,0.3-2.4,1
		c-0.7,0.7-1,1.5-1,2.4v9.3h2.2V10.5z M48.3,5c0-0.3,0.1-0.6,0.4-0.9c0.2-0.2,0.5-0.4,0.9-0.4H63c0.3,0,0.6,0.1,0.9,0.4
		c0.2,0.2,0.4,0.5,0.4,0.9v3.2h-16C48.3,8.2,48.3,5,48.3,5z"/>
	<path class="st0" d="M87.7,2.6c-0.7-0.7-1.5-1-2.4-1H71.7c-1,0-1.8,0.3-2.4,1c-0.7,0.7-1,1.5-1,2.4v9.3h2.2v-2.7h14.8
		c1,0,1.8-0.3,2.4-1c0.7-0.7,1-1.5,1-2.4V5C88.7,4.1,88.3,3.2,87.7,2.6z M86.5,8.2c0,0.3-0.1,0.6-0.4,0.9c-0.2,0.2-0.5,0.4-0.9,0.4
		H70.4V5c0-0.3,0.1-0.6,0.4-0.9c0.2-0.2,0.5-0.4,0.9-0.4h13.5c0.3,0,0.6,0.1,0.9,0.4c0.2,0.2,0.4,0.5,0.4,0.9
		C86.5,5,86.5,8.2,86.5,8.2z"/>
	<path class="st0" d="M25.2,4.4l17.5,9.9l0,0c0.2,0.1,0.4,0.2,0.6,0.2c0.3,0,0.5-0.1,0.7-0.2c0.2-0.2,0.3-0.4,0.4-0.6
		c0-0.1,0-0.2,0-0.3V1.6h-2.2v9.9l-17.6-10c-0.4-0.2-0.7-0.2-1.1,0S23,2,23,2.5v11.8h2.2V4.4z"/>
	<path class="st0" d="M41.1,30.8H27.6c-1,0-1.8,0.3-2.4,1c-0.7,0.7-1,1.5-1,2.4v9.3h2.2v-3.9h16v3.9h2.2v-9.3c0-1-0.3-1.8-1-2.4
		S42.1,30.8,41.1,30.8z M42.4,37.5h-16v-3.2c0-0.3,0.1-0.6,0.4-0.9c0.2-0.2,0.5-0.4,0.9-0.4h13.5c0.3,0,0.6,0.1,0.9,0.4
		c0.2,0.2,0.4,0.5,0.4,0.9v3.2H42.4z"/>
	<circle class="st0" cx="4.6" cy="43.6" r="0.7"/>
	<circle class="st0" cx="18.1" cy="43.6" r="0.7"/>
</g>
</svg>
