<?xml version="1.0" encoding="UTF-8"?>
<!DOCTYPE svg PUBLIC "-//W3C//DTD SVG 1.1//EN" "http://www.w3.org/Graphics/SVG/1.1/DTD/svg11.dtd">
<!-- Creator: CorelDRAW 2018 (64-Bit) -->
<svg xmlns="http://www.w3.org/2000/svg" xml:space="preserve" width="31.75mm" height="15.875mm" version="1.1" style="shape-rendering:geometricPrecision; text-rendering:geometricPrecision; image-rendering:optimizeQuality; fill-rule:evenodd; clip-rule:evenodd"
viewBox="0 0 3175 1587.5"
 xmlns:xlink="http://www.w3.org/1999/xlink">
 <defs>
  <style type="text/css">
   <![CDATA[
    .str0 {stroke:black;stroke-width:20;stroke-miterlimit:22.9256}
    .fil2 {fill:none}
    .fil1 {fill:white}
    .fil0 {fill:black;fill-rule:nonzero}
   ]]>
  </style>
 </defs>
 <g id="Слой_x0020_1">
  <metadata id="CorelCorpID_0Corel-Layer"/>
  <path class="fil0" d="M748.98 54.41l-570.03 0c-32.11,0 -60.76,10.1 -85.95,30.03 -30.86,24.36 -46.22,58.54 -46.22,102.55 0,32.52 9.83,61.17 29.62,85.94 24.63,30.86 58.81,46.22 102.55,46.22l450.05 0c5.12,0.28 10.24,0.97 15.36,2.08 6.78,1.66 12.73,4.01 17.85,7.33 14.12,9.14 21.17,24.36 21.17,45.4 0,5.12 -0.55,10.1 -1.66,14.94 -1.66,7.06 -4.15,13.15 -7.75,18.27 -9.13,14.12 -24.08,21.04 -44.97,21.04l-570.04 0 0 77.91 570.04 0c44.14,0 78.32,-15.36 102.54,-46.22 19.79,-25.19 29.62,-53.84 29.62,-85.94 0,-44.01 -15.36,-78.33 -46.22,-102.55 -24.78,-20.07 -53.42,-30.03 -85.94,-30.03l-450.05 0c-20.76,0 -35.85,-7.06 -44.98,-21.04 -3.46,-5.26 -5.95,-11.35 -7.34,-18.27 -1.24,-4.84 -1.93,-10.1 -1.93,-15.5 0,-20.76 6.92,-35.7 21.03,-44.97 5.4,-3.19 11.49,-5.68 18.27,-7.34 4.84,-0.97 9.96,-1.66 15.36,-1.94l569.62 0 0 -77.91zm737.21 2.91l0 347.5 -618.33 -350.41c-13.01,-7.2 -26.02,-7.06 -38.89,0.41 -12.73,7.62 -19.1,18.83 -19.1,33.63l0 416.84 77.91 0 0 -350.68 618.2 350.68 -1.11 -0.83c6.37,3.87 13.15,5.67 20.21,5.67 8.86,0 16.88,-2.63 23.94,-8.02 7.06,-5.4 11.62,-12.46 13.7,-21.18 0.83,-3.18 1.25,-6.78 1.25,-10.52l0 0.84 0 -413.93 -77.78 0zm782.05 311.38l0 137.42 77.92 0 0 -329.23c0,-33.77 -11.9,-62.56 -35.71,-86.36 -23.8,-23.8 -52.59,-35.71 -86.35,-35.71l-477.18 0c-33.77,0 -62.55,11.91 -86.35,35.71 -23.81,23.8 -35.71,52.59 -35.71,86.36l0 329.23 77.91 0 0 -137.42 565.47 0zm-565.47 -77.92l0 -113.89c0,-12.18 4.29,-22.56 12.87,-31.14 8.72,-8.72 19.1,-13.01 31.28,-13.01l477.18 0c12.17,0 22.55,4.29 31.27,13.01 8.58,8.58 12.87,18.96 12.87,31.14l0 113.89 -565.47 0zm704.14 215.34l77.91 0 0 -96.04 521.33 0c33.76,0 62.55,-11.91 86.35,-35.71 23.81,-23.8 35.71,-52.59 35.71,-86.36l0 -111.12c0,-33.77 -11.9,-62.56 -35.71,-86.36 -23.8,-23.8 -52.59,-35.71 -86.35,-35.71l-477.18 0c-33.77,0 -62.55,11.91 -86.35,35.71 -23.81,23.8 -35.71,52.59 -35.71,86.36l0 329.23zm77.91 -329.23c0,-12.18 4.29,-22.56 12.87,-31.14 8.72,-8.72 19.1,-13.01 31.28,-13.01l477.18 0c12.17,0 22.55,4.29 31.27,13.01 8.58,8.58 12.87,18.96 12.87,31.14l0 111.12c0,12.18 -4.29,22.56 -12.87,31.14 -8.72,8.72 -19.1,13.01 -31.27,13.01l-521.33 0 0 -155.27zm-2347.95 1283.59l0 -108.23 531.84 0c12.18,0 22.56,4.29 31.28,13.01 8.58,8.44 13.01,18.68 13.01,30.86l0 20.21c0,12.18 -4.43,22.56 -13.01,31.28 -8.72,8.58 -19.1,12.87 -31.28,12.87l-531.84 0zm0 -295.06l531.84 0c12.18,0 22.56,4.29 31.28,12.87 8.58,8.72 13.01,19.1 13.01,31.28l0 17.85c0,12.18 -4.43,22.56 -13.01,31.14 -8.72,8.72 -19.1,13.01 -31.28,13.01l-531.84 0 0 -106.15zm619.86 146.7c22.7,-23.53 34.05,-51.76 34.05,-84.7l0 -17.85c0,-33.77 -11.86,-62.64 -35.71,-86.35 -23.99,-23.86 19.21,-250.1 -14.24,-250.1l-343.95 0c-10.75,0 -323.18,-7.49 -330.73,0 -7.62,7.55 -7.19,242.49 -7.19,253.28l0 373.1c0,10.8 3.74,19.93 11.35,27.54 7.61,7.61 16.74,11.35 27.54,11.35l570.86 0c33.49,0 62.28,-11.9 86.36,-35.71 23.8,-23.8 35.71,-52.58 35.71,-86.35l0 -20.21c0,-32.8 -11.35,-60.75 -34.05,-84zm738.32 88.85l0 137.42 77.92 0 0 -329.23c0,-33.77 -11.9,-62.56 -35.71,-86.36 -23.8,-23.8 -52.59,-35.71 -86.35,-35.71l-477.18 0c-33.77,0 -62.55,11.91 -86.35,35.71 -23.81,23.8 -35.71,52.59 -35.71,86.36l0 329.23 77.91 0 0 -137.42 565.47 0zm-565.47 -77.92l0 -113.89c0,-12.18 4.29,-22.56 12.87,-31.14 8.72,-8.72 19.1,-13.01 31.28,-13.01l477.18 0c12.17,0 22.55,4.29 31.27,13.01 8.58,8.58 12.87,18.96 12.87,31.14l0 113.89 -565.47 0zm1322.06 -58.4l0 77.92 25.46 0 0 73.76c0,12.18 -4.29,22.56 -12.87,31.28 -8.72,8.58 -19.1,12.87 -31.27,12.87l-477.18 0c-12.18,0 -22.56,-4.29 -31.28,-12.87 -8.58,-8.72 -12.87,-19.1 -12.87,-31.28l0 -207.59c0,-12.18 4.29,-22.56 12.87,-31.14 8.72,-8.72 19.1,-13.01 31.28,-13.01l599.24 0 0 -77.91 -599.24 0c-33.77,0 -62.55,12.04 -86.35,36.12 -23.81,23.8 -35.71,52.45 -35.71,85.94l0 207.59c0,33.77 11.9,62.55 35.71,86.35 23.8,23.81 52.58,35.71 86.35,35.71l477.18 0c33.76,0 62.55,-11.9 86.35,-35.71 24.08,-23.8 36.12,-52.58 36.12,-86.35l0 -151.68 -103.79 0z"/>
  <rect class="fil1 str0" x="145.51" y="912.82" width="529.17" height="185.21"/>
  <path class="fil2 str0" d="M145.52 1547.81c8.63,-6.54 16.41,-5.52 19.88,5.03 8.93,3.45 -19.25,37.83 -12.33,-11.32l0.21 -3.13"/>
  <path class="fil2 str0" d="M595.31 1547.81c63.24,-27.78 8.22,61.51 3.33,-0.59l-3.33 0.59z"/>
 </g>
</svg>
