<?xml version="1.0" standalone="no"?>
<!DOCTYPE svg PUBLIC "-//W3C//DTD SVG 20010904//EN"
 "http://www.w3.org/TR/2001/REC-SVG-20010904/DTD/svg10.dtd">
<svg version="1.0" xmlns="http://www.w3.org/2000/svg"
 width="700.000000pt" height="700.000000pt" viewBox="0 0 700.000000 700.000000"
 preserveAspectRatio="xMidYMid meet">
<metadata>
Created by potrace 1.14, written by Peter Selinger 2001-2017
</metadata>
<g transform="translate(0.000000,700.000000) scale(0.100000,-0.100000)"
fill="#000000" stroke="none">
<path d="M1405 6027 c-130 -32 -316 -115 -339 -150 -14 -20 -19 -68 -32 -262
-2 -33 -4 -978 -4 -2100 l0 -2040 33 -65 c33 -67 102 -130 156 -145 14 -4 140
-10 280 -14 244 -6 254 -7 237 -24 -20 -20 -32 -83 -22 -121 8 -32 49 -74 81
-82 41 -10 90 4 120 36 25 26 29 39 29 85 0 43 -4 59 -24 80 l-23 25 1521 0
1522 0 -20 -20 c-87 -87 -5 -226 121 -206 56 9 76 21 99 59 27 43 25 87 -5
131 l-24 36 237 0 c130 1 262 3 292 7 131 13 289 71 399 146 73 50 186 163
239 240 84 123 131 245 150 393 12 87 6 380 -8 439 -6 28 -13 57 -15 65 -20
92 -85 218 -162 313 -48 60 -53 70 -41 86 7 10 35 47 62 82 125 166 174 336
170 599 -1 97 -6 136 -21 176 -39 101 -122 202 -288 349 -196 175 -196 174
-215 261 -24 108 -25 138 -21 994 1 168 0 321 -3 340 -3 19 -7 58 -10 85 -8
75 -33 149 -60 177 l-23 26 -824 2 c-1026 2 -2968 10 -3269 13 -187 2 -237 -1
-295 -16z m4243 -2041 c38 -13 71 -35 111 -75 80 -77 101 -135 102 -279 0 -60
-3 -126 -7 -148 -20 -114 -120 -219 -236 -249 -37 -10 -474 -13 -2030 -11
l-1983 1 -1 380 c0 209 3 385 7 390 6 8 621 11 1996 10 1901 0 1990 -1 2041
-19z m-23 -1371 c89 -25 181 -112 215 -203 30 -78 30 -285 1 -368 -39 -110
-139 -195 -251 -211 -30 -5 -939 -8 -2020 -8 l-1965 0 -1 395 c0 217 1 397 2
400 4 9 3987 4 4019 -5z m-3749 -1409 c22 -18 28 -32 27 -61 -2 -71 -70 -103
-123 -58 -57 47 -23 139 52 142 9 1 29 -10 44 -23z m3193 9 c41 -21 58 -64 39
-99 -19 -36 -35 -46 -79 -50 -38 -4 -47 0 -76 29 -34 34 -35 42 -11 92 19 39
80 53 127 28z"/>
</g>
</svg>
